<?xml version="1.0" standalone="no"?>
<!DOCTYPE svg PUBLIC "-//W3C//DTD SVG 20010904//EN"
 "http://www.w3.org/TR/2001/REC-SVG-20010904/DTD/svg10.dtd">
<svg version="1.0" xmlns="http://www.w3.org/2000/svg"
 width="1536.000000pt" height="1024.000000pt" viewBox="0 0 1536.000000 1024.000000"
 preserveAspectRatio="xMidYMid meet">

<g transform="translate(0.000000,1024.000000) scale(0.100000,-0.100000)"
fill="#000000" stroke="none">
<path d="M7550 8313 c-746 -51 -1329 -281 -1839 -726 -260 -226 -404 -404
-608 -748 -159 -267 -188 -348 -200 -549 -6 -112 -6 -115 13 -100 18 14 18 14
5 -3 -8 -9 -16 -16 -18 -13 -15 15 -258 -255 -310 -344 -162 -281 -159 -806 6
-1147 59 -120 77 -148 162 -249 94 -111 165 -163 344 -254 54 -28 107 -58 117
-67 10 -8 54 -37 98 -63 68 -40 93 -49 169 -60 192 -27 335 42 451 218 55 84
64 90 24 16 -30 -55 -108 -141 -169 -186 l-40 -30 35 3 c19 2 40 6 46 11 15
10 135 18 129 8 -3 -4 4 -6 15 -3 13 4 20 14 20 30 0 13 4 22 10 18 5 -3 7
-13 4 -23 -5 -16 -5 -16 6 1 6 9 15 17 20 17 6 0 10 -8 10 -17 0 -14 2 -15 9
-4 5 7 14 10 20 7 12 -8 15 6 4 18 -4 3 -8 30 -9 60 -2 52 -2 53 24 49 15 -2
21 0 15 3 -7 3 -13 12 -13 19 0 8 -4 17 -10 20 -6 4 -7 -1 -3 -12 6 -16 5 -16
-10 -4 -12 10 -14 17 -7 26 11 14 9 42 -4 64 -6 10 -5 12 2 7 7 -4 12 -2 12 3
0 6 -7 11 -15 11 -18 0 -19 11 -2 29 10 11 10 13 0 7 -12 -7 -18 5 -14 27 4
24 -17 -8 -29 -43 -7 -23 -18 -44 -23 -47 -7 -4 -7 1 -2 13 57 134 76 241 82
471 9 345 -43 641 -171 968 -107 273 -225 433 -394 531 -5 3 67 181 105 259
69 143 194 348 265 437 80 101 300 315 403 392 610 460 1422 628 2218 460 224
-47 517 -168 722 -298 120 -76 288 -209 333 -265 21 -24 59 -65 87 -90 216
-198 351 -349 474 -530 174 -257 295 -539 361 -846 47 -214 55 -301 55 -565
-1 -282 -16 -392 -84 -597 -39 -119 -127 -318 -188 -426 -18 -33 -33 -62 -33
-67 0 -4 -9 -19 -21 -34 -11 -14 -15 -26 -9 -26 6 0 8 -5 5 -11 -4 -6 -9 -8
-12 -5 -7 6 -73 -66 -73 -80 0 -6 -11 -21 -25 -34 -13 -12 -22 -27 -18 -33 3
-6 1 -7 -5 -3 -6 4 -16 -4 -23 -16 -12 -22 -11 -22 7 -8 17 14 18 14 6 -2 -8
-10 -17 -16 -21 -15 -4 1 -44 -37 -90 -85 -45 -48 -140 -139 -210 -202 -326
-295 -600 -456 -1021 -601 -332 -114 -752 -173 -1115 -157 -60 2 -108 2 -105
-1 11 -12 348 -16 475 -6 115 8 176 17 410 59 37 7 69 8 84 2 22 -8 16 -11
-45 -25 -38 -9 -82 -19 -99 -22 -185 -31 -221 -38 -225 -43 -8 -8 109 7 212
28 485 98 911 285 1254 551 186 144 441 392 438 425 -1 7 2 11 7 9 25 -16 241
298 341 495 69 136 144 342 132 361 -4 7 -3 9 3 6 7 -4 18 20 29 61 21 83 25
88 72 95 52 9 134 64 175 117 35 46 69 126 81 191 5 27 17 43 49 66 88 61 173
190 208 316 33 114 34 366 1 502 -23 98 -60 209 -61 185 -1 -13 -3 -13 -12 0
-9 12 -10 12 -5 -3 3 -10 6 -24 6 -30 0 -7 5 -6 11 3 8 11 9 6 5 -20 -5 -26
-4 -30 3 -15 8 16 9 12 8 -20 0 -22 8 -78 18 -125 27 -118 28 -369 2 -455 -37
-119 -109 -220 -175 -243 l-27 -9 -1 176 c0 97 -6 219 -13 271 -24 185 -95
458 -151 588 -31 73 -35 60 -5 -17 28 -71 68 -212 62 -217 -2 -3 -16 34 -31
82 -38 118 -43 100 -6 -22 61 -204 98 -436 105 -662 l4 -147 -14 161 c-8 89
-26 217 -40 285 -14 68 -26 129 -27 136 -1 7 -9 8 -24 3 -12 -5 -25 -6 -28 -3
-12 12 -96 12 -96 0 0 -7 -5 -6 -11 3 -8 11 -9 6 -5 -20 3 -19 7 -62 10 -95 5
-53 3 -50 -14 32 -27 123 -82 306 -129 423 l-38 95 -51 3 c-29 2 -52 7 -52 12
0 4 17 17 39 27 l38 18 -69 139 c-71 142 -109 200 -205 313 -55 64 -58 73 -23
51 16 -10 22 -10 28 -1 4 6 31 15 59 19 46 6 57 3 108 -26 63 -36 153 -140
220 -255 20 -36 41 -62 46 -59 5 2 22 -21 38 -53 17 -32 30 -54 31 -50 1 20
-105 211 -150 271 -27 36 -44 66 -36 66 29 0 125 -34 176 -62 56 -32 130 -87
163 -123 13 -14 13 -11 -3 13 -12 18 -33 40 -46 50 -14 9 -41 30 -62 45 -65
51 -115 75 -195 96 -47 13 -105 39 -149 66 -68 42 -77 45 -148 46 -53 1 -68 3
-50 9 23 7 21 8 -12 9 -28 1 -42 8 -60 31 -87 111 -117 148 -145 180 -36 40
-42 60 -18 60 7 0 18 6 22 13 4 7 27 21 50 30 l43 17 51 -63 c58 -69 119 -187
119 -229 0 -17 7 -31 20 -38 19 -10 20 -9 14 17 -26 117 -83 214 -189 322 -36
36 -102 106 -148 155 -87 94 -202 195 -332 292 -342 256 -788 434 -1285 514
-191 30 -525 46 -710 33z m475 -28 c441 -24 947 -177 1314 -397 75 -46 237
-161 307 -220 83 -69 257 -234 286 -271 18 -23 36 -43 40 -45 18 -8 5 -23 -42
-47 -27 -14 -65 -38 -83 -55 l-34 -30 -124 106 c-520 443 -1133 653 -1844 631
-220 -7 -346 -23 -537 -67 -325 -74 -629 -208 -945 -415 -29 -19 -53 -33 -53
-31 0 7 158 119 228 161 44 27 59 41 50 47 -10 6 -10 8 0 8 13 0 17 36 5 43
-5 2 -3 2 4 1 7 -2 15 1 18 5 7 12 -21 22 -43 15 -10 -4 -13 -3 -6 3 6 4 13
16 17 26 4 10 21 25 38 35 61 34 63 42 4 17 -181 -78 -407 -229 -617 -413 -90
-78 -193 -189 -299 -323 -56 -71 -77 -93 -64 -69 14 25 57 83 93 123 18 21 30
43 26 50 -4 7 -3 9 1 4 5 -4 17 0 27 10 20 18 25 38 6 27 -9 -6 -9 -3 0 9 8 9
19 15 25 14 7 -1 11 4 9 11 -1 6 2 11 6 10 10 -4 162 147 162 160 0 20 242
212 444 351 75 51 140 99 146 106 15 18 24 68 10 60 -5 -3 -10 -1 -10 4 0 6 8
11 18 11 14 0 15 2 2 10 -13 9 -13 10 0 10 11 1 10 4 -4 15 -19 14 -19 15 7
15 15 0 27 5 27 11 0 5 -4 8 -9 5 -5 -4 -21 -2 -34 3 -17 7 -27 7 -29 0 -2 -6
-20 -12 -40 -14 -20 -2 -49 -12 -64 -22 -16 -10 -25 -12 -21 -6 6 9 3 11 -7 7
-9 -3 -16 -10 -16 -15 0 -5 -9 -9 -20 -9 -30 0 -189 -82 -325 -168 -170 -108
-349 -254 -504 -411 -133 -134 -149 -131 -21 4 37 39 76 82 87 97 22 30 46 50
241 208 72 58 156 120 189 139 32 19 69 42 83 51 38 26 195 105 290 145 242
104 414 158 680 214 236 50 551 66 905 46z m-2616 -1072 c-12 -21 -39 -60 -59
-88 -21 -27 -61 -88 -91 -135 -54 -86 -109 -154 -109 -134 0 9 17 36 76 124
10 14 40 59 67 100 51 76 125 170 134 170 2 0 -5 -17 -18 -37z m4465 -15 c-3
-4 0 -8 5 -8 6 0 39 -35 73 -77 35 -43 76 -90 93 -105 33 -31 28 -44 -21 -54
-29 -5 -34 -1 -112 100 -45 59 -82 111 -82 116 0 6 7 22 17 36 12 18 18 22 24
13 4 -7 5 -17 3 -21z m-54 -33 c0 -8 -4 -15 -10 -15 -5 0 -10 7 -10 15 0 8 5
15 10 15 6 0 10 -7 10 -15z m-4379 -399 c109 -23 159 -58 159 -113 0 -18 -19
-79 -43 -136 -24 -56 -49 -116 -56 -134 -23 -56 -37 -63 -124 -56 -90 7 -88
-1 -42 123 13 36 36 99 50 140 14 41 35 94 45 117 11 23 15 45 10 48 -5 3 -68
6 -140 6 -178 0 -191 -7 -242 -125 -50 -118 -65 -175 -74 -275 -5 -58 -3 -85
5 -90 7 -4 -3 -14 -25 -25 l-37 -17 6 89 c12 191 94 387 182 434 48 27 230 34
326 14z m30 -522 c154 -104 284 -283 378 -521 65 -165 122 -402 135 -563 6
-72 5 -70 -30 105 -9 44 -24 99 -35 122 -10 23 -19 49 -19 57 0 29 -59 71
-101 72 -21 0 -42 3 -45 7 -3 3 -12 3 -19 1 -7 -3 -23 0 -36 6 -19 11 -21 10
-15 -5 5 -14 4 -16 -7 -7 -8 7 -16 9 -19 7 -3 -3 -8 9 -12 26 -3 18 -8 30 -11
27 -3 -3 2 -35 10 -73 21 -91 14 -106 -10 -19 -24 90 -66 210 -105 304 -45
106 -50 120 -45 120 3 0 14 -18 25 -40 11 -22 23 -40 26 -40 3 0 3 4 0 9 -3 5
1 14 9 21 8 7 15 9 15 6 0 -4 17 4 37 18 20 14 40 23 45 20 4 -3 8 2 8 11 0 8
7 18 15 21 19 8 15 56 -10 104 -42 82 -195 213 -268 230 l-32 8 31 1 c21 1 50
-11 85 -35z m-283 -11 c-10 -2 -28 -2 -40 0 -13 2 -5 4 17 4 22 1 32 -1 23 -4z
m453 -80 c13 -16 12 -17 -3 -4 -10 7 -18 15 -18 17 0 8 8 3 21 -13z m5438 -93
c0 -9 -4 -8 -9 5 -5 11 -9 27 -9 35 0 9 4 8 9 -5 5 -11 9 -27 9 -35z m-6249
16 c0 -2 -8 -10 -17 -17 -16 -13 -17 -12 -4 4 13 16 21 21 21 13z m-30 -40 c0
-2 -8 -10 -17 -17 -16 -13 -17 -12 -4 4 13 16 21 21 21 13z m6287 -18 c-3 -8
-6 -5 -6 6 -1 11 2 17 5 13 3 -3 4 -12 1 -19z m-6036 -26 c137 -71 276 -348
343 -682 30 -147 52 -426 41 -533 -7 -83 -20 -98 -59 -72 -31 21 -66 14 -82
-16 -7 -13 -13 -18 -14 -11 0 6 -5 12 -10 12 -6 0 -8 -11 -4 -26 4 -17 3 -25
-3 -21 -5 3 -10 1 -11 -6 -5 -45 -24 -135 -32 -149 -6 -11 -6 -19 0 -23 6 -4
7 -12 4 -18 -4 -7 -4 -9 0 -5 4 3 17 -3 28 -14 15 -15 22 -17 28 -8 4 7 13 9
19 5 7 -4 19 -1 28 7 15 11 16 11 9 -7 -4 -11 -9 -29 -12 -39 -6 -32 -57 -88
-98 -109 -179 -93 -498 146 -627 469 -126 319 -130 777 -8 1017 106 210 307
309 460 229z m6046 -24 c-3 -7 -5 -2 -5 12 0 14 2 19 5 13 2 -7 2 -19 0 -25z
m-5754 -60 c74 -112 113 -193 148 -305 33 -110 37 -140 8 -68 -19 47 -40 80
-26 43 5 -13 -2 -22 -22 -32 -48 -25 -56 -41 -42 -87 7 -23 11 -43 8 -45 -2
-2 -23 55 -46 127 -43 130 -110 284 -151 347 -39 57 -6 33 38 -29 24 -34 39
-65 35 -72 -5 -9 -3 -9 8 -1 24 19 69 23 85 7 8 -8 14 -11 14 -6 0 9 -78 142
-106 181 -9 12 -14 22 -11 22 3 0 30 -37 60 -82z m184 -450 c-3 -8 -6 -5 -6 6
-1 11 2 17 5 13 3 -3 4 -12 1 -19z m140 -70 c-3 -8 -6 -5 -6 6 -1 11 2 17 5
13 3 -3 4 -12 1 -19z m10 -50 c-3 -7 -5 -2 -5 12 0 14 2 19 5 13 2 -7 2 -19 0
-25z m5150 -111 c-6 -83 -37 -196 -67 -244 -41 -68 -182 -145 -196 -109 -4 9
0 31 7 49 l14 32 5 -30 c4 -22 10 -29 24 -27 38 7 118 87 150 150 25 51 56
172 56 221 0 17 3 31 6 31 4 0 4 -33 1 -73z m-310 -449 c-3 -8 -6 -5 -6 6 -1
11 2 17 5 13 3 -3 4 -12 1 -19z m-91 -284 c-14 -33 -25 -53 -26 -45 0 17 42
113 47 107 2 -2 -7 -30 -21 -62z m-61 -143 c-21 -43 -29 -39 -8 4 9 19 18 33
21 31 2 -2 -4 -18 -13 -35z m-76 -148 c-42 -71 -49 -79 -49 -61 0 8 6 21 14
27 8 6 19 25 26 41 7 17 17 30 22 30 5 0 -1 -17 -13 -37z m-4909 2 c0 -2 -10
-9 -22 -15 -22 -11 -22 -10 -4 4 21 17 26 19 26 11z m-125 -85 c3 -6 -1 -7 -9
-4 -18 7 -21 14 -7 14 6 0 13 -4 16 -10z m100 -9 c-11 -5 -24 -6 -30 -3 -6 3
-6 1 -2 -4 5 -5 18 -10 30 -11 105 -9 154 -17 165 -26 8 -6 28 -10 45 -10 26
2 28 0 12 -7 -20 -9 -20 -9 1 -9 11 -1 25 4 31 10 6 6 19 9 29 6 16 -4 16 -5
-3 -6 -12 0 -25 -5 -28 -11 -8 -14 -162 -11 -205 3 -43 15 -120 59 -120 70 0
4 21 7 48 6 34 0 41 -3 27 -8z m4825 -81 c-6 -11 -13 -20 -16 -20 -2 0 0 9 6
20 6 11 13 20 16 20 2 0 0 -9 -6 -20z m-37 -45 c-3 -9 -8 -14 -10 -11 -3 3 -2
9 2 15 9 16 15 13 8 -4z m-35 -55 c-7 -10 -14 -17 -17 -15 -4 4 18 35 25 35 2
0 -1 -9 -8 -20z m-87 -103 c-10 -9 -11 -8 -5 6 3 10 9 15 12 12 3 -3 0 -11 -7
-18z m-81 -98 c-7 -11 -14 -18 -17 -15 -3 3 0 12 7 21 18 21 23 19 10 -6z
m-65 -69 c-16 -16 -31 -28 -33 -25 -4 4 48 54 57 55 3 0 -8 -13 -24 -30z m-65
-64 c0 -2 -8 -10 -17 -17 -16 -13 -17 -12 -4 4 13 16 21 21 21 13z m-240 -180
c0 -2 -8 -10 -17 -17 -16 -13 -17 -12 -4 4 13 16 21 21 21 13z m-359 -259
c-10 -9 -11 -8 -5 6 3 10 9 15 12 12 3 -3 0 -11 -7 -18z m-256 -117 c3 -6 -1
-7 -9 -4 -18 7 -21 14 -7 14 6 0 13 -4 16 -10z m-27 -14 c15 5 15 4 -1 -6 -9
-6 -21 -9 -26 -5 -5 3 -12 -1 -14 -7 -4 -8 -6 -7 -6 4 -1 17 22 31 27 17 2 -4
11 -6 20 -3z m-218 -81 c-1 -5 -15 -9 -33 -7 -25 2 -29 0 -17 -9 12 -9 11 -10
-7 -6 -12 3 -23 1 -25 -5 -2 -5 -12 -6 -23 -2 -15 6 -10 11 31 25 52 19 76 20
74 4z m-165 -40 c-22 -8 -51 -13 -65 -13 -14 0 -3 5 25 13 65 17 91 17 40 0z"/>
<path d="M4659 5543 c-18 -48 -31 -204 -25 -288 9 -100 27 -227 33 -221 2 2
-1 42 -8 87 -15 107 -13 305 4 387 15 66 13 79 -4 35z"/>
<path d="M4736 5448 c3 -5 -3 -12 -15 -15 -21 -5 -30 -23 -12 -23 5 0 7 -10 3
-22 -5 -21 -6 -21 -13 -2 -7 19 -8 19 -8 -1 0 -11 4 -29 8 -40 5 -11 4 -25 -1
-32 -6 -8 -6 -13 -1 -13 5 0 10 -18 11 -40 2 -22 9 -61 17 -86 8 -26 12 -51 9
-56 -3 -4 -1 -8 5 -8 5 0 12 -19 16 -42 4 -24 16 -60 26 -80 11 -21 17 -38 13
-38 -4 0 -1 -7 6 -15 7 -9 10 -18 7 -21 -3 -3 7 -30 24 -60 16 -30 26 -54 23
-54 -3 0 5 -18 17 -40 26 -46 62 -52 67 -12 2 13 14 28 28 34 13 6 24 14 25
17 0 3 2 17 5 31 13 85 -12 223 -49 269 -10 12 -9 13 1 7 8 -5 5 8 -7 30 -11
20 -18 41 -15 46 3 4 0 8 -6 8 -6 0 -9 4 -5 9 3 5 1 12 -5 16 -6 4 -8 10 -5
15 2 4 -3 18 -13 31 -10 13 -24 39 -31 57 -8 17 -17 32 -22 32 -5 0 -8 3 -7 8
3 9 -34 92 -41 93 -32 6 -59 4 -55 -3z"/>
<path d="M5101 5424 c0 -11 3 -14 6 -6 3 7 2 16 -1 19 -3 4 -6 -2 -5 -13z"/>
<path d="M5111 5384 c0 -11 3 -14 6 -6 3 7 2 16 -1 19 -3 4 -6 -2 -5 -13z"/>
<path d="M5121 5344 c0 -11 3 -14 6 -6 3 7 2 16 -1 19 -3 4 -6 -2 -5 -13z"/>
<path d="M4553 5280 c0 -36 2 -50 4 -32 2 17 2 47 0 65 -2 17 -4 3 -4 -33z"/>
<path d="M5131 5304 c0 -11 3 -14 6 -6 3 7 2 16 -1 19 -3 4 -6 -2 -5 -13z"/>
<path d="M5141 5254 c0 -11 3 -14 6 -6 3 7 2 16 -1 19 -3 4 -6 -2 -5 -13z"/>
<path d="M4565 5132 c9 -125 75 -377 106 -407 8 -7 9 -5 1 10 -23 46 -77 248
-94 355 -15 98 -17 104 -13 42z"/>
<path d="M4671 5004 c0 -11 3 -14 6 -6 3 7 2 16 -1 19 -3 4 -6 -2 -5 -13z"/>
<path d="M4682 4960 c0 -8 6 -31 13 -50 7 -19 13 -28 13 -20 0 8 -6 31 -13 50
-7 19 -13 28 -13 20z"/>
<path d="M5171 4895 c-2 -84 -7 -153 -16 -220 -4 -34 -3 -37 7 -20 12 20 24
248 15 295 -2 14 -5 -11 -6 -55z"/>
<path d="M4750 4755 c0 -5 5 -17 10 -25 5 -8 10 -10 10 -5 0 6 -5 17 -10 25
-5 8 -10 11 -10 5z"/>
<path d="M4690 4681 c0 -6 4 -13 10 -16 6 -3 7 1 4 9 -7 18 -14 21 -14 7z"/>
<path d="M4810 4655 c13 -14 26 -25 28 -25 3 0 -5 11 -18 25 -13 14 -26 25
-28 25 -3 0 5 -11 18 -25z"/>
<path d="M4717 4632 c3 -12 9 -25 14 -28 14 -8 11 10 -6 32 -13 18 -14 18 -8
-4z"/>
<path d="M5141 4614 c0 -11 3 -14 6 -6 3 7 2 16 -1 19 -3 4 -6 -2 -5 -13z"/>
<path d="M4859 4607 c9 -11 27 -17 55 -16 l41 2 -40 6 c-22 4 -47 11 -55 16
-13 8 -13 7 -1 -8z"/>
<path d="M6620 7470 c-19 -11 -31 -19 -27 -20 11 0 67 29 67 35 0 7 -1 7 -40
-15z"/>
<path d="M6440 7370 c-9 -6 -10 -10 -3 -10 6 0 15 5 18 10 8 12 4 12 -15 0z"/>
<path d="M6315 7289 c-72 -46 -135 -94 -75 -57 123 75 173 109 158 108 -2 0
-39 -23 -83 -51z"/>
<path d="M9900 7230 c0 -5 5 -10 11 -10 5 0 7 5 4 10 -3 6 -8 10 -11 10 -2 0
-4 -4 -4 -10z"/>
<path d="M6139 7159 l-24 -20 28 17 c15 9 27 18 27 20 0 8 -8 4 -31 -17z"/>
<path d="M6090 7120 c-6 -12 -9 -24 -7 -27 3 -2 11 5 17 17 6 12 9 24 7 27 -3
2 -11 -5 -17 -17z"/>
<path d="M6010 7051 c-33 -31 -38 -44 -15 -35 12 5 14 2 8 -12 -6 -17 -5 -17
10 -6 8 8 13 20 10 28 -3 8 3 24 12 34 27 30 9 24 -25 -9z"/>
<path d="M5906 6949 c-31 -33 -56 -65 -56 -70 0 -6 -4 -7 -10 -4 -12 7 -41
-35 -123 -175 -60 -102 -114 -218 -82 -176 8 11 25 20 37 21 13 1 23 6 23 12
0 6 12 24 26 40 14 16 23 35 21 42 -3 8 0 11 7 7 6 -4 11 -1 11 8 0 8 8 20 18
25 9 6 13 11 8 11 -5 0 1 11 14 25 12 13 27 22 31 19 5 -3 9 3 9 13 0 18 11
34 78 115 17 22 32 46 32 54 0 8 6 17 14 20 11 4 13 12 5 31 -5 13 -7 29 -3
34 14 23 -9 4 -60 -52z m54 27 c0 -3 -4 -8 -10 -11 -5 -3 -10 -1 -10 4 0 6 5
11 10 11 6 0 10 -2 10 -4z m-42 -66 c-1 -27 -5 -30 -31 -30 l-31 0 29 30 c16
17 30 30 31 30 2 0 2 -13 2 -30z"/>
<path d="M10560 6571 c0 -6 4 -13 10 -16 6 -3 7 1 4 9 -7 18 -14 21 -14 7z"/>
<path d="M10660 6415 c0 -5 5 -17 10 -25 5 -8 10 -10 10 -5 0 6 -5 17 -10 25
-5 8 -10 11 -10 5z"/>
<path d="M11000 6315 c0 -5 5 -17 10 -25 5 -8 10 -10 10 -5 0 6 -5 17 -10 25
-5 8 -10 11 -10 5z"/>
<path d="M11021 6265 c1 -19 18 -51 18 -35 0 8 -4 22 -9 30 -5 8 -9 11 -9 5z"/>
<path d="M9211 6199 c-95 -19 -183 -96 -221 -195 -32 -81 -39 -247 -15 -330
40 -139 108 -225 223 -281 70 -35 82 -38 156 -37 190 3 316 114 349 308 20
120 -27 275 -122 394 -51 64 -114 106 -200 132 -67 21 -100 23 -170 9z m239
-111 c59 -30 93 -81 86 -128 -17 -109 -193 -108 -234 2 -18 46 -10 82 28 119
34 35 61 36 120 7z m-192 -160 c30 -30 3 -83 -39 -76 -32 5 -45 31 -31 62 13
28 49 35 70 14z"/>
<path d="M7119 5877 c-195 -55 -315 -262 -281 -485 23 -145 98 -256 218 -318
86 -45 141 -57 238 -52 106 5 191 44 260 118 125 134 145 314 56 497 -79 162
-198 245 -360 250 -49 2 -105 -3 -131 -10z m284 -91 c107 -44 117 -175 17
-216 -61 -25 -151 22 -171 90 -10 32 -9 44 7 76 30 60 81 78 147 50z m-212
-166 c27 -15 24 -55 -7 -79 -27 -21 -51 -19 -71 7 -40 49 19 103 78 72z"/>
<path d="M10912 5665 c0 -16 2 -22 5 -12 2 9 2 23 0 30 -3 6 -5 -1 -5 -18z"/>
<path d="M10915 5530 c-4 -6 -11 -8 -16 -5 -5 4 -9 -30 -9 -81 l0 -87 21 27
c15 20 21 41 21 74 -1 85 -3 94 -17 72z"/>
<path d="M8673 5311 c-55 -62 -107 -93 -196 -117 -115 -30 -261 -6 -339 56
-44 36 -81 37 -86 4 -4 -29 52 -76 125 -105 50 -21 75 -24 183 -23 139 0 195
15 287 77 52 35 125 124 120 147 -6 35 -42 20 -94 -39z"/>
<path d="M6083 4155 c-3 -9 -3 -18 -1 -21 3 -3 8 4 11 16 6 23 -1 27 -10 5z"/>
<path d="M6086 4107 c3 -10 9 -15 12 -12 3 3 0 11 -7 18 -10 9 -11 8 -5 -6z"/>
<path d="M7993 2783 c15 -2 39 -2 55 0 15 2 2 4 -28 4 -30 0 -43 -2 -27 -4z"/>
<path d="M7808 2773 c28 -2 76 -2 105 0 28 2 5 3 -53 3 -58 0 -81 -1 -52 -3z"/>
</g>
</svg>
